<svg width="19" height="20" viewBox="0 0 19 20" fill="none" xmlns="http://www.w3.org/2000/svg">
<path d="M5.65385 19.5576C5.16797 19.5576 4.75483 19.3874 4.41445 19.0471C4.07407 18.7067 3.90388 18.2936 3.90388 17.8077C3.90388 17.3218 4.07407 16.9086 4.41445 16.5683C4.75483 16.2279 5.16797 16.0577 5.65385 16.0577C6.13975 16.0577 6.55289 16.2279 6.89328 16.5683C7.23366 16.9086 7.40385 17.3218 7.40385 17.8077C7.40385 18.2936 7.23366 18.7067 6.89328 19.0471C6.55289 19.3874 6.13975 19.5576 5.65385 19.5576ZM15.3462 19.5576C14.8603 19.5576 14.4471 19.3874 14.1067 19.0471C13.7663 18.7067 13.5962 18.2936 13.5962 17.8077C13.5962 17.3218 13.7663 16.9086 14.1067 16.5683C14.4471 16.2279 14.8603 16.0577 15.3462 16.0577C15.832 16.0577 16.2452 16.2279 16.5856 16.5683C16.9259 16.9086 17.0961 17.3218 17.0961 17.8077C17.0961 18.2936 16.9259 18.7067 16.5856 19.0471C16.2452 19.3874 15.832 19.5576 15.3462 19.5576ZM4.51538 3.74998L7.05 9.05768H13.8673C13.925 9.05768 13.9763 9.04325 14.0212 9.0144C14.066 8.98555 14.1045 8.94548 14.1366 8.8942L16.8192 4.0192C16.8577 3.94868 16.8609 3.88618 16.8289 3.8317C16.7968 3.7772 16.7423 3.74995 16.6654 3.74995L4.51538 3.74998ZM3.79615 2.25003H17.6807C18.0897 2.25003 18.399 2.42406 18.6086 2.77213C18.8182 3.12021 18.8282 3.47566 18.6384 3.83847L15.4346 9.64225C15.2705 9.93072 15.0535 10.1554 14.7836 10.3163C14.5138 10.4772 14.2179 10.5576 13.8962 10.5576H6.6L5.4423 12.673C5.39102 12.75 5.38942 12.8333 5.4375 12.9231C5.48558 13.0128 5.5577 13.0577 5.65385 13.0577H16.3462C16.559 13.0577 16.7372 13.1295 16.8808 13.2731C17.0243 13.4166 17.0961 13.5948 17.0961 13.8077C17.0961 14.0205 17.0243 14.1987 16.8808 14.3423C16.7372 14.4858 16.559 14.5576 16.3462 14.5576H5.65385C4.9872 14.5576 4.48624 14.2701 4.15098 13.6952C3.81573 13.1202 3.80387 12.5461 4.1154 11.9731L5.54235 9.40765L1.90388 1.74995H0.750025C0.537192 1.74995 0.358992 1.67816 0.215425 1.53457C0.0718083 1.39099 0 1.21279 0 0.999976C0 0.787159 0.0717999 0.60896 0.2154 0.465376C0.358983 0.321793 0.537183 0.25 0.75 0.25H2.27883C2.44934 0.25 2.60832 0.295193 2.75575 0.385576C2.90318 0.475959 3.01537 0.6032 3.0923 0.7673L3.79613 2.25L3.79615 2.25003Z" fill="#0B0B0B"/>
</svg>
