<svg width="20" height="14" viewBox="0 0 20 14" fill="none" xmlns="http://www.w3.org/2000/svg">
<path d="M12.5632 13.5499C10.7174 13.5499 9.15389 12.9094 7.87281 11.6283C6.59174 10.3472 5.95121 8.78378 5.95121 6.93793C5.95121 5.10586 6.59174 3.54706 7.87281 2.26153C9.15389 0.976011 10.7174 0.333252 12.5632 0.333252C14.3953 0.333252 15.9541 0.976011 17.2396 2.26153C18.5251 3.54706 19.1679 5.10586 19.1679 6.93793C19.1679 8.78378 18.5251 10.3472 17.2396 11.6283C15.9541 12.9094 14.3953 13.5499 12.5632 13.5499ZM12.5595 12.2283C14.0281 12.2283 15.2763 11.7143 16.3043 10.6863C17.3322 9.65835 17.8462 8.41011 17.8462 6.94159C17.8462 5.47306 17.3322 4.22482 16.3043 3.19685C15.2763 2.16888 14.0281 1.6549 12.5595 1.6549C11.091 1.6549 9.84277 2.16888 8.81481 3.19685C7.78684 4.22482 7.27286 5.47306 7.27286 6.94159C7.27286 8.41011 7.78684 9.65835 8.81481 10.6863C9.84277 11.7143 11.091 12.2283 12.5595 12.2283ZM13.2204 6.68234V4.21352C13.2204 4.02629 13.157 3.86934 13.0303 3.74268C12.9036 3.61602 12.7466 3.55269 12.5592 3.55269C12.3719 3.55269 12.215 3.61602 12.0885 3.74268C11.962 3.86934 11.8987 4.02629 11.8987 4.21352V6.90429C11.8987 7.00803 11.9202 7.10852 11.9631 7.20577C12.006 7.30301 12.0649 7.38923 12.1398 7.46442L14.1845 9.51715C14.3156 9.65382 14.4712 9.72216 14.6513 9.72216C14.8315 9.72216 14.9899 9.65382 15.1266 9.51715C15.2633 9.38046 15.3316 9.22344 15.3316 9.0461C15.3316 8.86875 15.2633 8.71174 15.1266 8.57506L13.2204 6.68234ZM2.37591 4.07794C2.18868 4.07794 2.03173 4.01459 1.90509 3.88789C1.77843 3.76117 1.7151 3.60415 1.7151 3.41684C1.7151 3.22952 1.77843 3.0726 1.90509 2.94609C2.03173 2.81957 2.18868 2.75632 2.37591 2.75632H4.40928C4.5965 2.75632 4.75344 2.81967 4.8801 2.94637C5.00676 3.07309 5.07009 3.23011 5.07009 3.41742C5.07009 3.60474 5.00676 3.76166 4.8801 3.88817C4.75344 4.01469 4.5965 4.07794 4.40928 4.07794H2.37591ZM1.4948 7.6024C1.30756 7.6024 1.15062 7.53905 1.02397 7.41234C0.897314 7.28562 0.833984 7.12861 0.833984 6.9413C0.833984 6.75397 0.897314 6.59705 1.02397 6.47054C1.15062 6.34403 1.30756 6.28077 1.4948 6.28077H4.40928C4.5965 6.28077 4.75344 6.34412 4.8801 6.47083C5.00676 6.59755 5.07009 6.75456 5.07009 6.94187C5.07009 7.1292 5.00676 7.28612 4.8801 7.41263C4.75344 7.53914 4.5965 7.6024 4.40928 7.6024H1.4948ZM2.37591 11.1269C2.18868 11.1269 2.03173 11.0635 1.90509 10.9368C1.77843 10.8101 1.7151 10.6531 1.7151 10.4658C1.7151 10.2784 1.77843 10.1215 1.90509 9.995C2.03173 9.86848 2.18868 9.80523 2.37591 9.80523H4.40928C4.5965 9.80523 4.75344 9.86858 4.8801 9.99528C5.00676 10.122 5.07009 10.279 5.07009 10.4663C5.07009 10.6537 5.00676 10.8106 4.8801 10.9371C4.75344 11.0636 4.5965 11.1269 4.40928 11.1269H2.37591Z" fill="white"/>
</svg>
