<svg width="20" height="20" viewBox="0 0 20 20" fill="none" xmlns="http://www.w3.org/2000/svg">
<mask id="mask0_2030_4072" style="mask-type:alpha" maskUnits="userSpaceOnUse" x="0" y="0" width="20" height="20">
<rect width="20" height="20" fill="#D9D9D9"/>
</mask>
<g mask="url(#mask0_2030_4072)">
<path d="M4.16599 6.5866V15.577C4.16599 15.6517 4.19004 15.7132 4.23812 15.7613C4.2862 15.8094 4.34764 15.8334 4.42243 15.8334H15.5762C15.651 15.8334 15.7125 15.8094 15.7605 15.7613C15.8086 15.7132 15.8327 15.6517 15.8327 15.577V6.5866H12.916V11.5225C12.916 11.8098 12.7974 12.0267 12.5602 12.1731C12.323 12.3195 12.0789 12.3285 11.8278 12.2004L9.99933 11.2901L8.17083 12.2004C7.91976 12.3285 7.67563 12.3195 7.43845 12.1731C7.20127 12.0267 7.08268 11.8098 7.08268 11.5225V6.5866H4.16599ZM4.42243 17.0834C4.00684 17.0834 3.65187 16.9362 3.35754 16.6419C3.06319 16.3475 2.91602 15.9926 2.91602 15.577V5.83823C2.91602 5.65981 2.9446 5.48967 3.00177 5.32781C3.05892 5.16596 3.14465 5.01666 3.25897 4.87991L4.42885 3.46483C4.5656 3.28642 4.73654 3.15046 4.94166 3.05698C5.14679 2.96349 5.36367 2.91675 5.59231 2.91675H14.3903C14.619 2.91675 14.8372 2.96349 15.045 3.05698C15.2528 3.15046 15.425 3.28642 15.5618 3.46483L16.7397 4.89594C16.854 5.03269 16.9397 5.18332 16.9969 5.34785C17.0541 5.51238 17.0826 5.68385 17.0826 5.86227V15.577C17.0826 15.9926 16.9355 16.3475 16.6411 16.6419C16.3468 16.9362 15.9918 17.0834 15.5762 17.0834H4.42243ZM4.49131 5.33662H15.4993L14.5907 4.25487C14.564 4.22817 14.5332 4.2068 14.4985 4.19077C14.4638 4.17474 14.4277 4.16673 14.3903 4.16673H5.60033C5.56293 4.16673 5.52686 4.17474 5.49214 4.19077C5.45742 4.2068 5.4267 4.22817 5.39997 4.25487L4.49131 5.33662ZM8.33266 6.5866V10.7132L9.99933 9.87987L11.666 10.7132V6.5866H8.33266Z" fill="white"/>
</g>
</svg>
