<svg width="20" height="17" viewBox="0 0 20 17" fill="none" xmlns="http://www.w3.org/2000/svg">
<path d="M9.99035 16.5596C9.77625 16.5596 9.56119 16.5211 9.34518 16.4442C9.12914 16.3672 8.93908 16.2467 8.77498 16.0826L7.33848 14.7769C5.56539 13.1602 3.98238 11.5721 2.58943 10.0125C1.19648 8.45283 0.5 6.78201 0.5 4.99998C0.5 3.58076 0.978525 2.39263 1.93558 1.43558C2.89263 0.478526 4.08076 0 5.49998 0C6.30638 0 7.10285 0.185901 7.8894 0.557701C8.67593 0.929501 9.37946 1.53335 9.99998 2.36925C10.6205 1.53335 11.324 0.929501 12.1105 0.557701C12.8971 0.185901 13.6936 0 14.5 0C15.9192 0 17.1073 0.478526 18.0644 1.43558C19.0214 2.39263 19.5 3.58076 19.5 4.99998C19.5 6.80124 18.7916 8.49066 17.375 10.0682C15.9583 11.6458 14.3788 13.2205 12.6365 14.7923L11.2154 16.0826C11.0513 16.2467 10.8596 16.3672 10.6404 16.4442C10.4211 16.5211 10.2045 16.5596 9.99035 16.5596ZM9.28075 3.88845C8.73973 3.06408 8.17018 2.45992 7.5721 2.07595C6.97402 1.69197 6.28331 1.49998 5.49998 1.49998C4.49998 1.49998 3.66664 1.83331 2.99998 2.49998C2.33331 3.16664 1.99998 3.99998 1.99998 4.99998C1.99998 5.80254 2.25863 6.64164 2.77593 7.51728C3.29323 8.39291 3.94257 9.26341 4.72398 10.1288C5.50539 10.9942 6.35187 11.8397 7.2634 12.6653C8.17493 13.491 9.01981 14.2583 9.79803 14.9673C9.85573 15.0186 9.92304 15.0442 9.99998 15.0442C10.0769 15.0442 10.1442 15.0186 10.2019 14.9673C10.9801 14.2583 11.825 13.491 12.7366 12.6653C13.6481 11.8397 14.4946 10.9942 15.276 10.1288C16.0574 9.26341 16.7067 8.39291 17.224 7.51728C17.7413 6.64164 18 5.80254 18 4.99998C18 3.99998 17.6666 3.16664 17 2.49998C16.3333 1.83331 15.5 1.49998 14.5 1.49998C13.7166 1.49998 13.0259 1.69197 12.4279 2.07595C11.8298 2.45992 11.2602 3.06408 10.7192 3.88845C10.6346 4.01665 10.5282 4.11281 10.4 4.17693C10.2718 4.24103 10.1384 4.27308 9.99998 4.27308C9.86153 4.27308 9.72819 4.24103 9.59998 4.17693C9.47178 4.11281 9.36537 4.01665 9.28075 3.88845Z" fill="#0B0B0B"/>
</svg>
