<svg width="128" height="40" viewBox="0 0 128 40" fill="none" xmlns="http://www.w3.org/2000/svg">
<path d="M76.3538 10.5496H87.107L86.0442 15.5289H77.6515C77.1817 15.5289 76.7746 15.8577 76.6767 16.3176L76.4908 17.2141C76.3597 17.8345 76.8705 18.2181 77.5047 18.2181H81.9477C84.4804 18.2181 86.3711 20.5512 85.8446 23.0291L84.8855 27.5093C84.4138 29.6212 82.5818 31.4571 80.0315 31.461H67.9297L69.0297 26.0844H78.816C79.2858 26.0844 79.6929 25.7556 79.7908 25.2956L79.9767 24.3992C80.1078 23.7788 79.6753 22.9978 79.0431 22.9978H74.6001C72.0674 22.9978 70.1766 20.6647 70.7031 18.1868L71.5037 14.5013C71.9734 12.3091 73.9855 10.5496 76.3557 10.5496H76.3538Z" fill="#0B0B0B"/>
<path d="M102.465 10.5496H91.6843L90.6215 15.5289L100.31 15.5543C100.942 15.5543 101.412 16.1376 101.283 16.7561L100.977 18.2162H92.5671C90.6842 18.2181 89.0596 19.5374 88.6701 21.3791L87.7189 25.8613C87.0828 28.76 89.0949 31.463 92.2539 31.463H103.739L107.002 16.1571C107.589 13.278 105.614 10.5496 102.469 10.5496H102.465ZM99.2962 26.0942H94.495C93.8589 26.0942 93.3872 25.507 93.5222 24.8866L93.7532 23.7788C93.853 23.3208 94.2581 22.9939 94.7259 22.9939H99.9499L99.2962 26.0923V26.0942Z" fill="#0B0B0B"/>
<path d="M109.894 15.2979L107.621 25.8496C107.018 28.7952 109.173 31.4571 112.154 31.4571H117.511L117.134 33.1795C116.995 33.7667 116.167 34.2404 115.603 34.2384H105.899L104.807 39.0827H116.124C118.692 39.0827 121.778 36.6772 122.285 33.7569L127.135 10.5496H115.703C112.982 10.5496 110.395 12.3444 109.894 15.2979ZM118.257 26.0844H114.389C113.755 26.0844 113.284 25.5012 113.415 24.8807L115.231 16.3157C115.329 15.8557 115.734 15.5269 116.206 15.5269H120.498L118.259 26.0825L118.257 26.0844Z" fill="#0B0B0B"/>
<path d="M42.2369 3.57764H48.6098L42.6831 31.4629H36.4434L42.2369 3.57764Z" fill="#0B0B0B"/>
<path d="M63.8071 3.57764L51.7523 17.3001L58.6066 31.457H51.8247L45.1484 16.0729L56.2931 3.57764H63.8071Z" fill="#0B0B0B"/>
<path d="M63.7317 11.3462H69.9069L65.4659 31.4572H59.4473L63.7317 11.3462Z" fill="#0B0B0B"/>
<path d="M68.0619 9.50226C69.9471 9.50226 71.4754 7.97399 71.4754 6.08878C71.4754 4.20356 69.9471 2.67529 68.0619 2.67529C66.1767 2.67529 64.6484 4.20356 64.6484 6.08878C64.6484 7.97399 66.1767 9.50226 68.0619 9.50226Z" fill="#0B0B0B"/>
<path d="M17.3979 33.6786C26.4219 33.6786 33.7372 26.3633 33.7372 17.3393C33.7372 8.31536 26.4219 1 17.3979 1C8.37395 1 1.05859 8.31536 1.05859 17.3393C1.05859 26.3633 8.37395 33.6786 17.3979 33.6786Z" fill="#E42313"/>
<path d="M17.3952 33.9467C23.6822 33.9467 28.7787 28.8501 28.7787 22.5632C28.7787 16.2762 23.6822 11.1797 17.3952 11.1797C11.1083 11.1797 6.01172 16.2762 6.01172 22.5632C6.01172 28.8501 11.1083 33.9467 17.3952 33.9467Z" fill="white"/>
<path d="M17.3974 33.2344C21.1872 33.2344 24.2595 30.1621 24.2595 26.3722C24.2595 22.5823 21.1872 19.51 17.3974 19.51C13.6075 19.51 10.5352 22.5823 10.5352 26.3722C10.5352 30.1621 13.6075 33.2344 17.3974 33.2344Z" fill="#0B0B0B"/>
</svg>
