<svg width="17" height="16" viewBox="0 0 17 16" fill="none" xmlns="http://www.w3.org/2000/svg">
<path d="M9.92114 15.5448C9.68136 15.7841 9.38424 15.9037 9.02978 15.9037C8.67532 15.9037 8.37843 15.7841 8.13911 15.5448L0.805781 8.21142C0.685059 8.0907 0.590246 7.95174 0.521344 7.79454C0.452427 7.63736 0.417969 7.4697 0.417969 7.29156V1.33323C0.417969 0.992426 0.541101 0.698898 0.787365 0.452648C1.03361 0.206384 1.32714 0.083252 1.66795 0.083252H7.62628C7.79828 0.083252 7.96304 0.116822 8.12055 0.183961C8.27808 0.251086 8.4146 0.341447 8.53012 0.455044L15.8634 7.80121C16.1081 8.04586 16.2318 8.34473 16.2344 8.69781C16.2371 9.0509 16.1188 9.3471 15.8795 9.58642L9.92114 15.5448ZM9.02653 14.6666L14.9885 8.70823L7.62986 1.33323H1.66795V7.29156L9.02653 14.6666ZM3.75034 4.45821C4.03943 4.45821 4.28546 4.35703 4.48845 4.15467C4.69143 3.95231 4.79293 3.70659 4.79293 3.4175C4.79293 3.12842 4.69175 2.88239 4.48939 2.6794C4.28702 2.47641 4.0413 2.37492 3.75222 2.37492C3.46314 2.37492 3.2171 2.4761 3.01411 2.67846C2.81113 2.88082 2.70964 3.12654 2.70964 3.41563C2.70964 3.70471 2.81082 3.95075 3.01318 4.15373C3.21554 4.35672 3.46126 4.45821 3.75034 4.45821Z" fill="white"/>
</svg>
