<svg width="17" height="15" viewBox="0 0 17 15" fill="none" xmlns="http://www.w3.org/2000/svg">
<path d="M8.65862 14.1329C8.48021 14.1329 8.30099 14.1008 8.12098 14.0367C7.94095 13.9726 7.78256 13.8722 7.64581 13.7354L6.44873 12.6473C4.97116 11.3001 3.65198 9.97664 2.49119 8.67696C1.3304 7.37728 0.75 5.98493 0.75 4.4999C0.75 3.31722 1.14877 2.32711 1.94631 1.52957C2.74385 0.732023 3.73397 0.333252 4.91665 0.333252C5.58865 0.333252 6.25238 0.48817 6.90783 0.798003C7.56328 1.10784 8.14955 1.61104 8.66665 2.30763C9.18374 1.61104 9.77001 1.10784 10.4255 0.798003C11.0809 0.48817 11.7446 0.333252 12.4166 0.333252C13.5993 0.333252 14.5894 0.732023 15.387 1.52957C16.1845 2.32711 16.5833 3.31722 16.5833 4.4999C16.5833 6.00095 15.993 7.4088 14.8125 8.72344C13.6319 10.0381 12.3157 11.3503 10.8637 12.6601L9.67946 13.7354C9.54271 13.8722 9.38299 13.9726 9.20029 14.0367C9.0176 14.1008 8.83704 14.1329 8.65862 14.1329ZM8.06729 3.57363C7.61644 2.88666 7.14182 2.38318 6.64342 2.06321C6.14501 1.74322 5.56942 1.58323 4.91665 1.58323C4.08331 1.58323 3.38887 1.86101 2.83331 2.41656C2.27776 2.97212 1.99998 3.66656 1.99998 4.4999C1.99998 5.1687 2.21552 5.86795 2.6466 6.59765C3.07769 7.32734 3.61881 8.05276 4.26998 8.7739C4.92116 9.49505 5.62656 10.1996 6.38617 10.8877C7.14578 11.5757 7.84984 12.2151 8.49835 12.806C8.54644 12.8487 8.60253 12.8701 8.66665 12.8701C8.73076 12.8701 8.78685 12.8487 8.83494 12.806C9.48345 12.2151 10.1875 11.5757 10.9471 10.8877C11.7067 10.1996 12.4121 9.49505 13.0633 8.7739C13.7145 8.05276 14.2556 7.32734 14.6867 6.59765C15.1178 5.86795 15.3333 5.1687 15.3333 4.4999C15.3333 3.66656 15.0555 2.97212 14.5 2.41656C13.9444 1.86101 13.25 1.58323 12.4166 1.58323C11.7639 1.58323 11.1883 1.74322 10.6899 2.06321C10.1915 2.38318 9.71685 2.88666 9.266 3.57363C9.19549 3.68046 9.10681 3.76059 8.99998 3.81402C8.89313 3.86744 8.78202 3.89415 8.66665 3.89415C8.55127 3.89415 8.44016 3.86744 8.33331 3.81402C8.22648 3.76059 8.13781 3.68046 8.06729 3.57363Z" fill="white"/>
</svg>
